<svg viewBox="0 0 22 22" fill="none" xmlns="http://www.w3.org/2000/svg">
<path fill-rule="evenodd" clip-rule="evenodd" d="M10.6556 21.3333C16.5405 21.3333 21.3111 16.5577 21.3111 10.6667C21.3111 4.77563 16.5405 0 10.6556 0C4.77066 0 0 4.77563 0 10.6667C0 16.5577 4.77066 21.3333 10.6556 21.3333ZM13.038 10.5358V11.3782C13.5103 11.4602 13.945 11.6881 14.2811 12.0297C14.7406 12.4831 14.991 13.1068 14.9725 13.7518C14.9725 14.4344 14.7401 15.0059 14.282 15.4521C13.8319 15.9023 13.2191 16.1517 12.5824 16.1439C11.9402 16.1494 11.322 15.9007 10.8627 15.4521C10.634 15.2309 10.4575 14.9614 10.3461 14.6634C10.2301 14.3728 10.1702 14.0629 10.1697 13.7501C10.1677 12.6002 10.9781 11.6088 12.1059 11.3814V10.5308C11.6372 10.4411 11.205 10.2163 10.8627 9.88406C10.6341 9.66275 10.4576 9.39331 10.3461 9.09531C10.2874 8.94657 10.2427 8.79274 10.2123 8.63576H9.36713C9.29004 9.10911 9.06154 9.54474 8.71588 9.87738C8.26788 10.3273 7.65724 10.5777 7.02215 10.5717C6.38077 10.5774 5.76317 10.3293 5.30417 9.88156C5.07541 9.66015 4.89866 9.39075 4.78669 9.0928C4.66874 8.80211 4.60744 8.49157 4.60611 8.17789C4.59711 7.53584 4.85254 6.91831 5.31253 6.47004C6.25247 5.53653 7.76818 5.5302 8.71588 6.45583C9.06096 6.79386 9.2896 7.23276 9.3688 7.70915H10.2157C10.4565 6.49645 11.5796 5.66494 12.8105 5.78794C14.0414 5.91094 14.9775 6.94822 14.9733 8.18457C14.9733 8.86637 14.7409 9.43872 14.2828 9.8849C13.9437 10.2233 13.5095 10.4503 13.038 10.5358ZM7.01745 9.71857C7.39664 9.72324 7.76047 9.56901 8.02065 9.29328L8.02316 9.29161C8.32498 9.00162 8.4917 8.59868 8.48296 8.18034C8.48296 7.72998 8.35004 7.37738 8.07583 7.10332C7.80349 6.81064 7.42155 6.64444 7.02163 6.64461C6.63495 6.63785 6.26305 6.79295 5.99586 7.07241L5.96493 7.10332C5.68013 7.38798 5.52633 7.77802 5.54024 8.18034C5.52746 8.57524 5.67983 8.95763 5.96075 9.23563C6.28345 9.55981 6.62872 9.71857 7.01745 9.71857ZM11.0993 8.18399C11.0855 7.7813 11.2396 7.39097 11.5248 7.10614L11.5557 7.07523C11.8229 6.79577 12.1948 6.64067 12.5815 6.64743C12.9814 6.64736 13.3633 6.81354 13.6357 7.10614C13.9099 7.3802 14.0428 7.7328 14.0428 8.18399C14.0501 8.60092 13.8839 9.00217 13.5839 9.29192C13.3232 9.56691 12.9596 9.72075 12.5807 9.71637C12.1919 9.71637 11.8466 9.55846 11.5239 9.23259C11.2411 8.95689 11.0868 8.57535 11.0984 8.18065L11.0993 8.18399ZM13.5841 14.8647C13.3235 15.1397 12.9598 15.2935 12.5809 15.2891C12.1921 15.2891 11.8469 15.132 11.5242 14.8062C11.2414 14.5301 11.0871 14.1483 11.0987 13.7534C11.0849 13.3507 11.239 12.9604 11.5242 12.6755L11.5551 12.6446C11.8227 12.3653 12.1949 12.2105 12.5817 12.2177C12.9817 12.2182 13.3634 12.3846 13.6359 12.6772C13.9101 12.9521 14.043 13.3047 14.043 13.7551C14.0513 14.1731 13.885 14.5758 13.5841 14.8663V14.8647Z" fill="#1B4E8D"/>
</svg>
